<?xml version="1.0" encoding="UTF-8" standalone="no"?>
<!DOCTYPE svg PUBLIC "-//W3C//DTD SVG 1.1//EN"
 "http://www.w3.org/Graphics/SVG/1.1/DTD/svg11.dtd">
<!-- Generated by graphviz version 2.40.1 (20161225.0304)
 -->
<!-- Title: finite_state_machine Pages: 1 -->
<svg width="472pt" height="92pt"
 viewBox="0.00 0.00 472.00 92.00" xmlns="http://www.w3.org/2000/svg" xmlns:xlink="http://www.w3.org/1999/xlink">
<g id="graph0" class="graph" transform="scale(1 1) rotate(0) translate(4 88)">
<title>finite_state_machine</title>
<polygon fill="#ffffff" stroke="transparent" points="-4,4 -4,-88 468,-88 468,4 -4,4"/>
<!-- 3 -->
<g id="node1" class="node">
<title>3</title>
<ellipse fill="none" stroke="#000000" cx="339" cy="-18" rx="18" ry="18"/>
<text text-anchor="middle" x="339" y="-14.3" font-family="Times,serif" font-size="14.00" fill="#000000">3</text>
</g>
<!-- 4 -->
<g id="node2" class="node">
<title>4</title>
<ellipse fill="none" stroke="#000000" cx="446" cy="-45" rx="18" ry="18"/>
<text text-anchor="middle" x="446" y="-41.3" font-family="Times,serif" font-size="14.00" fill="#000000">4</text>
</g>
<!-- 3&#45;&gt;4 -->
<g id="edge1" class="edge">
<title>3&#45;&gt;4</title>
<path fill="none" stroke="#000000" d="M356.6689,-22.4585C373.474,-26.699 399.0085,-33.1423 418.4799,-38.0557"/>
<polygon fill="#000000" stroke="#000000" points="417.7524,-41.4818 428.3049,-40.5349 419.4652,-34.6945 417.7524,-41.4818"/>
<text text-anchor="middle" x="392.5" y="-38.8" font-family="Times,serif" font-size="14.00" fill="#000000">0/20/1</text>
</g>
<!-- 2 -->
<g id="node3" class="node">
<title>2</title>
<ellipse fill="none" stroke="#000000" cx="232" cy="-66" rx="18" ry="18"/>
<text text-anchor="middle" x="232" y="-62.3" font-family="Times,serif" font-size="14.00" fill="#000000">2</text>
</g>
<!-- 2&#45;&gt;3 -->
<g id="edge3" class="edge">
<title>2&#45;&gt;3</title>
<path fill="none" stroke="#000000" d="M246.9649,-55.3456C253.2675,-51.1515 260.7998,-46.5096 268,-43 282.0414,-36.1558 298.4493,-30.2527 311.9526,-25.9039"/>
<polygon fill="#000000" stroke="#000000" points="313.1183,-29.2068 321.6252,-22.8915 311.0368,-22.5234 313.1183,-29.2068"/>
<text text-anchor="middle" x="285.5" y="-46.8" font-family="Times,serif" font-size="14.00" fill="#000000">0/20/2</text>
</g>
<!-- 2&#45;&gt;4 -->
<g id="edge2" class="edge">
<title>2&#45;&gt;4</title>
<path fill="none" stroke="#000000" d="M250.0561,-65.8392C282.3432,-65.3174 352.0204,-63.1276 410,-54 412.8638,-53.5492 415.8331,-52.9787 418.7825,-52.3447"/>
<polygon fill="#000000" stroke="#000000" points="419.6293,-55.741 428.5501,-50.0252 418.012,-48.9304 419.6293,-55.741"/>
<text text-anchor="middle" x="339" y="-66.8" font-family="Times,serif" font-size="14.00" fill="#000000">0/25/2</text>
</g>
<!-- 1 -->
<g id="node4" class="node">
<title>1</title>
<ellipse fill="none" stroke="#000000" cx="125" cy="-18" rx="18" ry="18"/>
<text text-anchor="middle" x="125" y="-14.3" font-family="Times,serif" font-size="14.00" fill="#000000">1</text>
</g>
<!-- 1&#45;&gt;3 -->
<g id="edge5" class="edge">
<title>1&#45;&gt;3</title>
<path fill="none" stroke="#000000" d="M143.2455,-18C180.5965,-18 266.0024,-18 310.6404,-18"/>
<polygon fill="#000000" stroke="#000000" points="310.8007,-21.5001 320.8007,-18 310.8006,-14.5001 310.8007,-21.5001"/>
<text text-anchor="middle" x="232" y="-21.8" font-family="Times,serif" font-size="14.00" fill="#000000">0/10/4</text>
</g>
<!-- 1&#45;&gt;2 -->
<g id="edge4" class="edge">
<title>1&#45;&gt;2</title>
<path fill="none" stroke="#000000" d="M142.3748,-22.8915C157.0321,-27.3044 178.3795,-34.4112 196,-43 200.1626,-45.029 204.4362,-47.4364 208.519,-49.917"/>
<polygon fill="#000000" stroke="#000000" points="206.7213,-52.9216 217.0351,-55.3456 210.4841,-47.0189 206.7213,-52.9216"/>
<text text-anchor="middle" x="178.5" y="-46.8" font-family="Times,serif" font-size="14.00" fill="#000000">0/25/5</text>
</g>
<!-- 0 -->
<g id="node5" class="node">
<title>0</title>
<ellipse fill="none" stroke="#000000" cx="18" cy="-45" rx="18" ry="18"/>
<text text-anchor="middle" x="18" y="-41.3" font-family="Times,serif" font-size="14.00" fill="#000000">0</text>
</g>
<!-- 0&#45;&gt;2 -->
<g id="edge6" class="edge">
<title>0&#45;&gt;2</title>
<path fill="none" stroke="#000000" d="M35.4499,-50.0252C41.3007,-51.5321 47.8906,-53.0382 54,-54 106.544,-62.2719 168.6951,-64.8459 203.9177,-65.6441"/>
<polygon fill="#000000" stroke="#000000" points="203.8777,-69.1439 213.9439,-65.8392 204.0139,-62.1452 203.8777,-69.1439"/>
<text text-anchor="middle" x="125" y="-66.8" font-family="Times,serif" font-size="14.00" fill="#000000">0/20/6</text>
</g>
<!-- 0&#45;&gt;1 -->
<g id="edge7" class="edge">
<title>0&#45;&gt;1</title>
<path fill="none" stroke="#000000" d="M35.6689,-40.5415C52.474,-36.301 78.0085,-29.8577 97.4799,-24.9443"/>
<polygon fill="#000000" stroke="#000000" points="98.4652,-28.3055 107.3049,-22.4651 96.7524,-21.5182 98.4652,-28.3055"/>
<text text-anchor="middle" x="71.5" y="-38.8" font-family="Times,serif" font-size="14.00" fill="#000000">0/30/7</text>
</g>
</g>
</svg>
