<?xml version="1.0" encoding="UTF-8" standalone="no"?>
<!DOCTYPE svg PUBLIC "-//W3C//DTD SVG 1.1//EN"
 "http://www.w3.org/Graphics/SVG/1.1/DTD/svg11.dtd">
<!-- Generated by graphviz version 2.40.1 (20161225.0304)
 -->
<!-- Title: finite_state_machine Pages: 1 -->
<svg width="344pt" height="259pt"
 viewBox="0.00 0.00 344.00 259.00" xmlns="http://www.w3.org/2000/svg" xmlns:xlink="http://www.w3.org/1999/xlink">
<g id="graph0" class="graph" transform="scale(1 1) rotate(0) translate(4 255)">
<title>finite_state_machine</title>
<polygon fill="#ffffff" stroke="transparent" points="-4,4 -4,-255 340,-255 340,4 -4,4"/>
<!-- 8 -->
<g id="node1" class="node">
<title>8</title>
<ellipse fill="none" stroke="#000000" cx="218" cy="-172" rx="18" ry="18"/>
<text text-anchor="middle" x="218" y="-168.3" font-family="Times,serif" font-size="14.00" fill="#000000">8</text>
</g>
<!-- 9 -->
<g id="node2" class="node">
<title>9</title>
<ellipse fill="none" stroke="#000000" cx="318" cy="-145" rx="18" ry="18"/>
<text text-anchor="middle" x="318" y="-141.3" font-family="Times,serif" font-size="14.00" fill="#000000">9</text>
</g>
<!-- 8&#45;&gt;9 -->
<g id="edge1" class="edge">
<title>8&#45;&gt;9</title>
<path fill="none" stroke="#000000" d="M235.4187,-167.297C250.6682,-163.1796 273.0795,-157.1285 290.7086,-152.3687"/>
<polygon fill="#000000" stroke="#000000" points="291.7035,-155.7255 300.4454,-149.7397 289.8788,-148.9675 291.7035,-155.7255"/>
<text text-anchor="middle" x="268" y="-164.8" font-family="Times,serif" font-size="14.00" fill="#000000">1/1/1</text>
</g>
<!-- 6 -->
<g id="node3" class="node">
<title>6</title>
<ellipse fill="none" stroke="#000000" cx="218" cy="-118" rx="18" ry="18"/>
<text text-anchor="middle" x="218" y="-114.3" font-family="Times,serif" font-size="14.00" fill="#000000">6</text>
</g>
<!-- 6&#45;&gt;9 -->
<g id="edge2" class="edge">
<title>6&#45;&gt;9</title>
<path fill="none" stroke="#000000" d="M235.4187,-122.703C250.6682,-126.8204 273.0795,-132.8715 290.7086,-137.6313"/>
<polygon fill="#000000" stroke="#000000" points="289.8788,-141.0325 300.4454,-140.2603 291.7035,-134.2745 289.8788,-141.0325"/>
<text text-anchor="middle" x="268" y="-138.8" font-family="Times,serif" font-size="14.00" fill="#000000">1/1/1</text>
</g>
<!-- 3 -->
<g id="node4" class="node">
<title>3</title>
<ellipse fill="none" stroke="#000000" cx="118" cy="-18" rx="18" ry="18"/>
<text text-anchor="middle" x="118" y="-14.3" font-family="Times,serif" font-size="14.00" fill="#000000">3</text>
</g>
<!-- 5 -->
<g id="node5" class="node">
<title>5</title>
<ellipse fill="none" stroke="#000000" cx="218" cy="-50" rx="18" ry="18"/>
<text text-anchor="middle" x="218" y="-46.3" font-family="Times,serif" font-size="14.00" fill="#000000">5</text>
</g>
<!-- 3&#45;&gt;5 -->
<g id="edge3" class="edge">
<title>3&#45;&gt;5</title>
<path fill="none" stroke="#000000" d="M135.2658,-12.4495C148.5576,-9.1526 167.1126,-6.7136 182,-13 189.2657,-16.068 195.7902,-21.3989 201.2244,-27.0743"/>
<polygon fill="#000000" stroke="#000000" points="198.7454,-29.559 207.9263,-34.8469 204.0469,-24.9879 198.7454,-29.559"/>
<text text-anchor="middle" x="168" y="-16.8" font-family="Times,serif" font-size="14.00" fill="#000000">1/1/1</text>
</g>
<!-- 5&#45;&gt;9 -->
<g id="edge4" class="edge">
<title>5&#45;&gt;9</title>
<path fill="none" stroke="#000000" d="M231.304,-62.3408C244.2951,-74.4223 264.5946,-93.3829 282,-110 287.1681,-114.934 292.7174,-120.2966 297.874,-125.3076"/>
<polygon fill="#000000" stroke="#000000" points="295.4528,-127.8352 305.0578,-132.3066 300.3376,-122.8213 295.4528,-127.8352"/>
<text text-anchor="middle" x="268" y="-113.8" font-family="Times,serif" font-size="14.00" fill="#000000">1/1/1</text>
</g>
<!-- 0 -->
<g id="node6" class="node">
<title>0</title>
<ellipse fill="none" stroke="#000000" cx="18" cy="-110" rx="18" ry="18"/>
<text text-anchor="middle" x="18" y="-106.3" font-family="Times,serif" font-size="14.00" fill="#000000">0</text>
</g>
<!-- 0&#45;&gt;3 -->
<g id="edge7" class="edge">
<title>0&#45;&gt;3</title>
<path fill="none" stroke="#000000" d="M30.8656,-97.2254C37.6739,-90.5333 46.2148,-82.2448 54,-75 67.9387,-62.0288 83.9342,-47.7826 96.4474,-36.7773"/>
<polygon fill="#000000" stroke="#000000" points="98.8983,-39.2831 104.1108,-30.0592 94.2839,-34.0194 98.8983,-39.2831"/>
<text text-anchor="middle" x="68" y="-78.8" font-family="Times,serif" font-size="14.00" fill="#000000">1/1/1</text>
</g>
<!-- 4 -->
<g id="node7" class="node">
<title>4</title>
<ellipse fill="none" stroke="#000000" cx="118" cy="-202" rx="18" ry="18"/>
<text text-anchor="middle" x="118" y="-198.3" font-family="Times,serif" font-size="14.00" fill="#000000">4</text>
</g>
<!-- 0&#45;&gt;4 -->
<g id="edge5" class="edge">
<title>0&#45;&gt;4</title>
<path fill="none" stroke="#000000" d="M30.7922,-123.2093C37.5803,-130.1116 46.1255,-138.633 54,-146 67.7969,-158.9077 83.7924,-172.904 96.341,-183.6752"/>
<polygon fill="#000000" stroke="#000000" points="94.1545,-186.4107 104.0317,-190.2439 98.7008,-181.0879 94.1545,-186.4107"/>
<text text-anchor="middle" x="68" y="-173.8" font-family="Times,serif" font-size="14.00" fill="#000000">1/1/1</text>
</g>
<!-- 2 -->
<g id="node8" class="node">
<title>2</title>
<ellipse fill="none" stroke="#000000" cx="118" cy="-137" rx="18" ry="18"/>
<text text-anchor="middle" x="118" y="-133.3" font-family="Times,serif" font-size="14.00" fill="#000000">2</text>
</g>
<!-- 0&#45;&gt;2 -->
<g id="edge6" class="edge">
<title>0&#45;&gt;2</title>
<path fill="none" stroke="#000000" d="M35.4187,-114.703C50.6682,-118.8204 73.0795,-124.8715 90.7086,-129.6313"/>
<polygon fill="#000000" stroke="#000000" points="89.8788,-133.0325 100.4454,-132.2603 91.7035,-126.2745 89.8788,-133.0325"/>
<text text-anchor="middle" x="68" y="-130.8" font-family="Times,serif" font-size="14.00" fill="#000000">1/1/1</text>
</g>
<!-- 1 -->
<g id="node9" class="node">
<title>1</title>
<ellipse fill="none" stroke="#000000" cx="118" cy="-83" rx="18" ry="18"/>
<text text-anchor="middle" x="118" y="-79.3" font-family="Times,serif" font-size="14.00" fill="#000000">1</text>
</g>
<!-- 0&#45;&gt;1 -->
<g id="edge8" class="edge">
<title>0&#45;&gt;1</title>
<path fill="none" stroke="#000000" d="M35.4187,-105.297C50.6682,-101.1796 73.0795,-95.1285 90.7086,-90.3687"/>
<polygon fill="#000000" stroke="#000000" points="91.7035,-93.7255 100.4454,-87.7397 89.8788,-86.9675 91.7035,-93.7255"/>
<text text-anchor="middle" x="68" y="-103.8" font-family="Times,serif" font-size="14.00" fill="#000000">1/1/1</text>
</g>
<!-- 4&#45;&gt;8 -->
<g id="edge13" class="edge">
<title>4&#45;&gt;8</title>
<path fill="none" stroke="#000000" d="M135.4187,-196.7744C150.6682,-192.1995 173.0795,-185.4762 190.7086,-180.1874"/>
<polygon fill="#000000" stroke="#000000" points="191.8729,-183.4923 200.4454,-177.2664 189.8614,-176.7875 191.8729,-183.4923"/>
<text text-anchor="middle" x="168" y="-193.8" font-family="Times,serif" font-size="14.00" fill="#000000">0/1/1</text>
</g>
<!-- 7 -->
<g id="node10" class="node">
<title>7</title>
<ellipse fill="none" stroke="#000000" cx="218" cy="-233" rx="18" ry="18"/>
<text text-anchor="middle" x="218" y="-229.3" font-family="Times,serif" font-size="14.00" fill="#000000">7</text>
</g>
<!-- 4&#45;&gt;7 -->
<g id="edge14" class="edge">
<title>4&#45;&gt;7</title>
<path fill="none" stroke="#000000" d="M135.4187,-207.3998C150.7617,-212.1561 173.3547,-219.16 191.0325,-224.6401"/>
<polygon fill="#000000" stroke="#000000" points="190.193,-228.0441 200.7809,-227.6621 192.2657,-221.358 190.193,-228.0441"/>
<text text-anchor="middle" x="168" y="-224.8" font-family="Times,serif" font-size="14.00" fill="#000000">1/1/1</text>
</g>
<!-- 2&#45;&gt;8 -->
<g id="edge12" class="edge">
<title>2&#45;&gt;8</title>
<path fill="none" stroke="#000000" d="M135.4187,-143.0965C150.7617,-148.4666 173.3547,-156.3742 191.0325,-162.5614"/>
<polygon fill="#000000" stroke="#000000" points="190.1861,-165.9733 200.7809,-165.9733 192.4986,-159.3663 190.1861,-165.9733"/>
<text text-anchor="middle" x="168" y="-161.8" font-family="Times,serif" font-size="14.00" fill="#000000">1/1/1</text>
</g>
<!-- 2&#45;&gt;6 -->
<g id="edge11" class="edge">
<title>2&#45;&gt;6</title>
<path fill="none" stroke="#000000" d="M135.4652,-131.6519C141.317,-129.9933 147.9036,-128.2696 154,-127 165.6541,-124.5729 178.6407,-122.6117 189.8537,-121.1472"/>
<polygon fill="#000000" stroke="#000000" points="190.4653,-124.5983 199.9595,-119.8962 189.6053,-117.6513 190.4653,-124.5983"/>
<text text-anchor="middle" x="168" y="-130.8" font-family="Times,serif" font-size="14.00" fill="#000000">0/1/1</text>
</g>
<!-- 1&#45;&gt;6 -->
<g id="edge10" class="edge">
<title>1&#45;&gt;6</title>
<path fill="none" stroke="#000000" d="M135.1988,-88.3665C148.1323,-92.469 166.2572,-98.3607 182,-104 185.1566,-105.1307 188.4534,-106.3538 191.7153,-107.5901"/>
<polygon fill="#000000" stroke="#000000" points="190.6314,-110.9233 201.2209,-111.2591 193.152,-104.3929 190.6314,-110.9233"/>
<text text-anchor="middle" x="168" y="-107.8" font-family="Times,serif" font-size="14.00" fill="#000000">1/1/1</text>
</g>
<!-- 1&#45;&gt;5 -->
<g id="edge9" class="edge">
<title>1&#45;&gt;5</title>
<path fill="none" stroke="#000000" d="M129.45,-68.917C135.871,-62.141 144.4927,-54.6999 154,-51 165.2588,-46.6184 178.4975,-45.7781 190.0039,-46.2614"/>
<polygon fill="#000000" stroke="#000000" points="189.7425,-49.7515 199.9774,-47.0137 190.2691,-42.7713 189.7425,-49.7515"/>
<text text-anchor="middle" x="168" y="-54.8" font-family="Times,serif" font-size="14.00" fill="#000000">0/1/1</text>
</g>
<!-- 7&#45;&gt;9 -->
<g id="edge15" class="edge">
<title>7&#45;&gt;9</title>
<path fill="none" stroke="#000000" d="M232.2546,-221.7353C245.4076,-211.2153 265.3593,-194.9366 282,-180 287.3173,-175.2272 292.9203,-169.9225 298.0809,-164.9159"/>
<polygon fill="#000000" stroke="#000000" points="300.5541,-167.3927 305.2404,-157.8906 295.6514,-162.3963 300.5541,-167.3927"/>
<text text-anchor="middle" x="268" y="-206.8" font-family="Times,serif" font-size="14.00" fill="#000000">1/1/1</text>
</g>
</g>
</svg>
