<?xml version="1.0" encoding="UTF-8" standalone="no"?>
<!DOCTYPE svg PUBLIC "-//W3C//DTD SVG 1.1//EN"
 "http://www.w3.org/Graphics/SVG/1.1/DTD/svg11.dtd">
<!-- Generated by graphviz version 2.40.1 (20161225.0304)
 -->
<!-- Title: finite_state_machine Pages: 1 -->
<svg width="511pt" height="345pt"
 viewBox="0.00 0.00 511.00 345.00" xmlns="http://www.w3.org/2000/svg" xmlns:xlink="http://www.w3.org/1999/xlink">
<g id="graph0" class="graph" transform="scale(1 1) rotate(0) translate(4 341)">
<title>finite_state_machine</title>
<polygon fill="#ffffff" stroke="transparent" points="-4,4 -4,-341 507,-341 507,4 -4,4"/>
<!-- 4 -->
<g id="node1" class="node">
<title>4</title>
<ellipse fill="none" stroke="#000000" cx="18" cy="-83" rx="18" ry="18"/>
<text text-anchor="middle" x="18" y="-79.3" font-family="Times,serif" font-size="14.00" fill="#000000">4</text>
</g>
<!-- 2 -->
<g id="node2" class="node">
<title>2</title>
<ellipse fill="none" stroke="#000000" cx="133" cy="-169" rx="18" ry="18"/>
<text text-anchor="middle" x="133" y="-165.3" font-family="Times,serif" font-size="14.00" fill="#000000">2</text>
</g>
<!-- 4&#45;&gt;2 -->
<g id="edge1" class="edge">
<title>4&#45;&gt;2</title>
<path fill="none" stroke="#000000" d="M31.326,-95.5759C37.9675,-101.6525 46.2237,-108.9258 54,-115 71.8395,-128.9347 93.0691,-143.3338 109.0261,-153.7553"/>
<polygon fill="#000000" stroke="#000000" points="107.4495,-156.9039 117.7466,-159.398 111.2524,-151.0269 107.4495,-156.9039"/>
<text text-anchor="middle" x="75.5" y="-148.8" font-family="Times,serif" font-size="14.00" fill="#000000">0/retour</text>
</g>
<!-- 3 -->
<g id="node3" class="node">
<title>3</title>
<ellipse fill="none" stroke="#000000" cx="485" cy="-162" rx="18" ry="18"/>
<text text-anchor="middle" x="485" y="-158.3" font-family="Times,serif" font-size="14.00" fill="#000000">3</text>
</g>
<!-- 4&#45;&gt;3 -->
<g id="edge2" class="edge">
<title>4&#45;&gt;3</title>
<path fill="none" stroke="#000000" d="M34.3611,-75.4164C56.3104,-65.9536 96.7333,-51 133,-51 133,-51 133,-51 370,-51 418.9956,-51 455.1122,-103.8054 472.8075,-136.5735"/>
<polygon fill="#000000" stroke="#000000" points="469.7905,-138.3584 477.5039,-145.6216 476.0034,-135.1335 469.7905,-138.3584"/>
<text text-anchor="middle" x="251.5" y="-54.8" font-family="Times,serif" font-size="14.00" fill="#000000">0/retour</text>
</g>
<!-- 2&#45;&gt;4 -->
<g id="edge8" class="edge">
<title>2&#45;&gt;4</title>
<path fill="none" stroke="#000000" d="M129.1856,-151.2632C124.5659,-134.2994 115.0502,-109.3795 97,-96 82.5271,-85.2721 62.4593,-82.0748 46.1716,-81.5326"/>
<polygon fill="#000000" stroke="#000000" points="46.1198,-78.0325 36.111,-81.5072 46.1021,-85.0325 46.1198,-78.0325"/>
<text text-anchor="middle" x="75.5" y="-99.8" font-family="Times,serif" font-size="14.00" fill="#000000">2/aller</text>
</g>
<!-- 2&#45;&gt;3 -->
<g id="edge9" class="edge">
<title>2&#45;&gt;3</title>
<path fill="none" stroke="#000000" d="M138.6333,-186.3888C144.0815,-200.1712 153.7799,-218.619 169,-228 208.3939,-252.2807 226.877,-236.7555 273,-233 354.2959,-226.3806 374.4541,-214.1021 449,-181 452.6735,-179.3688 456.4916,-177.5246 460.2088,-175.6425"/>
<polygon fill="#000000" stroke="#000000" points="461.866,-178.7256 469.1011,-170.9859 458.6186,-172.5244 461.866,-178.7256"/>
<text text-anchor="middle" x="312.5" y="-234.8" font-family="Times,serif" font-size="14.00" fill="#000000">2/aller</text>
</g>
<!-- 1 -->
<g id="node4" class="node">
<title>1</title>
<ellipse fill="none" stroke="#000000" cx="370" cy="-162" rx="18" ry="18"/>
<text text-anchor="middle" x="370" y="-158.3" font-family="Times,serif" font-size="14.00" fill="#000000">1</text>
</g>
<!-- 2&#45;&gt;1 -->
<g id="edge7" class="edge">
<title>2&#45;&gt;1</title>
<path fill="none" stroke="#000000" d="M151.0102,-167.3173C186.1732,-164.2262 266.4349,-158.1246 334,-160 336.4286,-160.0674 338.9483,-160.1603 341.4756,-160.2695"/>
<polygon fill="#000000" stroke="#000000" points="341.5301,-163.7767 351.6941,-160.786 341.8835,-156.7856 341.5301,-163.7767"/>
<text text-anchor="middle" x="251.5" y="-164.8" font-family="Times,serif" font-size="14.00" fill="#000000">0/retour</text>
</g>
<!-- 0 -->
<g id="node5" class="node">
<title>0</title>
<ellipse fill="none" stroke="#000000" cx="251.5" cy="-206" rx="18" ry="18"/>
<text text-anchor="middle" x="251.5" y="-202.3" font-family="Times,serif" font-size="14.00" fill="#000000">0</text>
</g>
<!-- 2&#45;&gt;0 -->
<g id="edge6" class="edge">
<title>2&#45;&gt;0</title>
<path fill="none" stroke="#000000" d="M144.4178,-183.386C150.8299,-190.3364 159.4535,-198.0177 169,-202 186.0445,-209.11 206.8195,-210.0785 223.2577,-209.2855"/>
<polygon fill="#000000" stroke="#000000" points="223.6289,-212.7679 233.3509,-208.5567 223.1248,-205.786 223.6289,-212.7679"/>
<text text-anchor="middle" x="190.5" y="-212.8" font-family="Times,serif" font-size="14.00" fill="#000000">0/retour</text>
</g>
<!-- 3&#45;&gt;4 -->
<g id="edge5" class="edge">
<title>3&#45;&gt;4</title>
<path fill="none" stroke="#000000" d="M481.3299,-144.3548C471.4571,-102.3679 440.1892,0 370,0 133,0 133,0 133,0 91.6328,0 55.0316,-35.7484 34.7578,-60.3233"/>
<polygon fill="#000000" stroke="#000000" points="32.0096,-58.1559 28.5249,-68.1613 37.4885,-62.5128 32.0096,-58.1559"/>
<text text-anchor="middle" x="251.5" y="-3.8" font-family="Times,serif" font-size="14.00" fill="#000000">1/aller</text>
</g>
<!-- 3&#45;&gt;2 -->
<g id="edge4" class="edge">
<title>3&#45;&gt;2</title>
<path fill="none" stroke="#000000" d="M481.4864,-179.9367C475.7222,-207.3116 463.4437,-257.4602 449,-268 348.4743,-341.3553 270.3398,-340.2264 169,-268 157.0355,-259.4727 145.9086,-222.652 139.2808,-196.4121"/>
<polygon fill="#000000" stroke="#000000" points="142.6603,-195.4971 136.8879,-186.6128 135.8601,-197.1577 142.6603,-195.4971"/>
<text text-anchor="middle" x="312.5" y="-325.8" font-family="Times,serif" font-size="14.00" fill="#000000">0/retour</text>
</g>
<!-- 3&#45;&gt;1 -->
<g id="edge3" class="edge">
<title>3&#45;&gt;1</title>
<path fill="none" stroke="#000000" d="M466.8632,-162C448.4738,-162 419.7546,-162 398.356,-162"/>
<polygon fill="#000000" stroke="#000000" points="398.2221,-158.5001 388.2221,-162 398.2221,-165.5001 398.2221,-158.5001"/>
<text text-anchor="middle" x="427.5" y="-165.8" font-family="Times,serif" font-size="14.00" fill="#000000">0/retour</text>
</g>
<!-- 1&#45;&gt;2 -->
<g id="edge11" class="edge">
<title>1&#45;&gt;2</title>
<path fill="none" stroke="#000000" d="M352.7783,-156.2312C326.3822,-148.1106 274.3186,-134.9399 230,-141 205.5638,-144.3414 178.685,-152.4689 159.4314,-159.1116"/>
<polygon fill="#000000" stroke="#000000" points="158.1012,-155.8697 149.8478,-162.5128 160.4425,-162.4666 158.1012,-155.8697"/>
<text text-anchor="middle" x="251.5" y="-144.8" font-family="Times,serif" font-size="14.00" fill="#000000">5/aller</text>
</g>
<!-- 1&#45;&gt;3 -->
<g id="edge12" class="edge">
<title>1&#45;&gt;3</title>
<path fill="none" stroke="#000000" d="M385.1057,-151.93C391.3068,-148.3682 398.7287,-144.8011 406,-143 424.5505,-138.4051 430.4495,-138.4051 449,-143 452.9765,-143.985 456.9981,-145.4981 460.8403,-147.2497"/>
<polygon fill="#000000" stroke="#000000" points="459.4038,-150.447 469.8943,-151.93 462.6182,-144.2287 459.4038,-150.447"/>
<text text-anchor="middle" x="427.5" y="-146.8" font-family="Times,serif" font-size="14.00" fill="#000000">4/aller</text>
</g>
<!-- 1&#45;&gt;0 -->
<g id="edge10" class="edge">
<title>1&#45;&gt;0</title>
<path fill="none" stroke="#000000" d="M358.0177,-175.9135C351.5766,-182.4705 343.0978,-189.7664 334,-194 317.0998,-201.8644 296.3239,-204.8531 279.8492,-205.8813"/>
<polygon fill="#000000" stroke="#000000" points="279.5727,-202.3897 269.7281,-206.3055 279.8659,-209.3836 279.5727,-202.3897"/>
<text text-anchor="middle" x="312.5" y="-207.8" font-family="Times,serif" font-size="14.00" fill="#000000">0/retour</text>
</g>
<!-- 0&#45;&gt;2 -->
<g id="edge13" class="edge">
<title>0&#45;&gt;2</title>
<path fill="none" stroke="#000000" d="M236.3628,-195.4946C229.2558,-191.0149 220.4938,-186.1134 212,-183 195.636,-177.0018 176.3957,-173.5226 161.0001,-171.5328"/>
<polygon fill="#000000" stroke="#000000" points="161.3744,-168.0528 151.0384,-170.3806 160.57,-175.0065 161.3744,-168.0528"/>
<text text-anchor="middle" x="190.5" y="-186.8" font-family="Times,serif" font-size="14.00" fill="#000000">6/aller</text>
</g>
<!-- 0&#45;&gt;1 -->
<g id="edge14" class="edge">
<title>0&#45;&gt;1</title>
<path fill="none" stroke="#000000" d="M264.283,-193.244C271.5281,-186.7601 281.1048,-179.3509 291,-175 306.921,-167.9996 326.1513,-164.7367 341.6526,-163.2302"/>
<polygon fill="#000000" stroke="#000000" points="342.0056,-166.7133 351.7019,-162.4434 341.4592,-159.7347 342.0056,-166.7133"/>
<text text-anchor="middle" x="312.5" y="-178.8" font-family="Times,serif" font-size="14.00" fill="#000000">7/aller</text>
</g>
</g>
</svg>
